<svg width="24" height="24" xmlns="http://www.w3.org/2000/svg">

 <g>
  <title>background</title>
  <rect fill="none" id="canvas_background" height="602" width="802" y="-1" x="-1"/>
 </g>
 <g>
  <title>Layer 1</title>
  <path id="svg_1" d="m16.25,24c-0.2,0 -0.389,-0.078 -0.53,-0.22l-10.72,-10.72c-0.283,-0.283 -0.439,-0.659 -0.439,-1.059s0.155,-0.777 0.438,-1.06l10.721,-10.721c0.141,-0.142 0.33,-0.22 0.53,-0.22s0.389,0.078 0.53,0.22c0.142,0.141 0.22,0.33 0.22,0.53s-0.078,0.389 -0.22,0.53l-10.72,10.72l10.72,10.72c0.142,0.142 0.22,0.33 0.22,0.53s-0.078,0.389 -0.22,0.53s-0.33,0.22 -0.53,0.22z" fill="#fff"/>
  <line stroke-linecap="undefined" stroke-linejoin="undefined" id="svg_2" y2="23.13281" x2="16.25781" y1="0.78907" x1="16.25781" stroke-width="1.5" stroke="#fff" fill="none"/>
 </g>
</svg>