<svg width="2040" height="2040" viewBox="0 0 2040 2040" xmlns="http://www.w3.org/2000/svg"><title>logo-quhier−que-demain</title><g fill="none" fill-rule="evenodd"><circle fill="#FFF" cx="1020" cy="1020" r="1020"/><circle fill="#000" cx="1020" cy="1020" r="1000"/><circle fill="#FFF" cx="1020" cy="1020" r="905"/><circle fill="#000" cx="1020" cy="1020" r="845"/><g fill="#FFF"><path d="M736.273 1053.516c1.547-.4 3.524-1.118 5.93-2.15l-12.805-12.202 13.664-14.266 12.805 12.204c2.005-4.125 3.41-7.735 4.21-10.83 1.262-4.64 1.892-10.053 1.892-16.24 0-14.21-2.91-25.195-8.725-32.958-5.815-7.763-14.308-11.644-25.48-11.644-10.485 0-18.85 3.724-25.094 11.172s-9.366 18.59-9.366 33.43c0 17.36 4.468 29.79 13.406 37.296 5.787 4.87 12.72 7.305 20.798 7.305 3.036 0 5.958-.373 8.765-1.117zm48.04-17.016c-2.235 7.276-5.53 13.32-9.883 18.133l14.61 13.664-13.837 14.437-15.297-14.437c-4.64 2.807-8.65 4.784-12.03 5.93-5.673 1.89-12.462 2.835-20.368 2.835-16.5 0-30.136-4.927-40.906-14.78-13.063-11.86-19.594-29.277-19.594-52.25 0-23.147 6.703-40.65 20.11-52.51 10.942-9.68 24.55-14.522 40.82-14.522 16.385 0 30.135 5.128 41.25 15.383 12.833 11.86 19.25 28.445 19.25 49.758 0 11.288-1.375 20.74-4.125 28.36zm24.32-89.633h26.898v77.86c0 8.708 1.033 15.067 3.096 19.078 3.208 7.104 10.198 10.656 20.97 10.656 10.712 0 17.673-3.55 20.882-10.654 2.062-4.01 3.093-10.37 3.093-19.078v-77.86h26.9v77.86c0 13.463-2.09 23.947-6.274 31.453-7.79 13.75-22.658 20.626-44.6 20.626-21.944 0-36.84-6.875-44.69-20.625-4.18-7.505-6.272-17.99-6.272-31.452v-77.86zm145.664 0L950 999.203h-14.867l-4.297-52.336h23.46zm23.117 126.672V946.865h26.21v48.297h49.5v-48.297h26.298v126.672h-26.297v-56.548h-49.5v56.547h-26.21zm151.508 0h-26.297V946.865h26.297v126.672zm118.336-104.244h-67.03v26.898h61.53v22h-61.53v32.57h70.124v22.774h-95.993V946.866h92.897v22.43zm50.187-.43v34.03h29.993c5.958 0 10.427-.686 13.406-2.06 5.27-2.407 7.906-7.162 7.906-14.267 0-7.678-2.55-12.834-7.648-15.47-2.865-1.49-7.162-2.234-12.89-2.234h-30.767zm56.762-18.734c4.784 2.005 8.837 4.956 12.16 8.85 2.75 3.21 4.927 6.762 6.53 10.658 1.606 3.896 2.408 8.337 2.408 13.32 0 6.017-1.52 11.932-4.555 17.747-3.036 5.815-8.05 9.926-15.04 12.332 5.845 2.347 9.984 5.684 12.42 10.01 2.434 4.325 3.65 10.93 3.65 19.81v8.506c0 5.787.23 9.71.69 11.774.686 3.266 2.29 5.672 4.81 7.22v3.18h-29.132c-.802-2.808-1.375-5.07-1.718-6.79-.688-3.552-1.06-7.19-1.117-10.914l-.172-11.773c-.113-8.08-1.59-13.464-4.424-16.157-2.836-2.692-8.15-4.04-15.942-4.04h-27.328v49.673h-25.867V946.865h62.132c8.88.172 15.713 1.26 20.497 3.266zM536.2 1503.977c1.546-.4 3.523-1.118 5.93-2.15l-12.806-12.202 13.664-14.266 12.805 12.202c2.005-4.126 3.41-7.735 4.21-10.83 1.26-4.64 1.892-10.053 1.892-16.24 0-14.21-2.908-25.195-8.723-32.958-5.815-7.763-14.31-11.644-25.48-11.644-10.485 0-18.85 3.725-25.094 11.172-6.245 7.448-9.368 18.592-9.368 33.43 0 17.36 4.47 29.792 13.407 37.297 5.786 4.87 12.718 7.303 20.797 7.303 3.036 0 5.958-.373 8.765-1.117zm48.038-17.016c-2.234 7.278-5.528 13.32-9.883 18.135l14.61 13.664-13.836 14.436-15.3-14.437c-4.64 2.806-8.65 4.783-12.03 5.93-5.672 1.89-12.46 2.834-20.367 2.834-16.5 0-30.136-4.927-40.907-14.78-13.062-11.86-19.593-29.277-19.593-52.25 0-23.147 6.703-40.65 20.11-52.51 10.942-9.68 24.548-14.522 40.82-14.522 16.385 0 30.135 5.128 41.25 15.384 12.833 11.86 19.25 28.445 19.25 49.758 0 11.286-1.376 20.74-4.126 28.36zm24.32-89.63h26.9v77.86c0 8.707 1.03 15.066 3.093 19.077 3.21 7.104 10.2 10.656 20.97 10.656 10.714 0 17.675-3.552 20.883-10.656 2.063-4.01 3.094-10.37 3.094-19.08v-77.858h26.9v77.86c0 13.462-2.093 23.946-6.275 31.452-7.79 13.75-22.658 20.626-44.6 20.626-21.943 0-36.84-6.875-44.688-20.625-4.182-7.505-6.273-17.99-6.273-31.453v-77.86zm220.774 22.43h-67.03v26.897h61.53v22h-61.53v32.57h70.124V1524h-95.992v-126.672h92.898v22.43zm98.313-.43V1502h24.406c12.49 0 21.2-6.16 26.127-18.477 2.693-6.76 4.04-14.81 4.04-24.148 0-12.89-2.02-22.788-6.06-29.69-4.04-6.905-12.074-10.357-24.105-10.357h-24.405zm48.468-19.25c8.88 2.92 16.07 8.28 21.57 16.07 4.412 6.302 7.42 13.12 9.024 20.453 1.604 7.333 2.406 14.322 2.406 20.968 0 16.845-3.38 31.11-10.14 42.798-9.167 15.755-23.318 23.633-42.453 23.633h-54.57v-126.67h54.57c7.85.114 14.38 1.03 19.593 2.75zm146.61 19.68h-67.032v26.897h61.534v22h-61.532v32.57h70.126V1524h-95.992v-126.672h92.9v22.43zm107.68-22.43h38.07V1524h-24.664v-85.68c0-2.463.026-5.915.084-10.355.057-4.44.085-7.863.085-10.27L1220.003 1524h-25.695l-23.807-106.305c0 2.407.03 5.83.086 10.27.056 4.44.085 7.892.085 10.355V1524h-24.664v-126.672h38.5l23.03 99.602 22.86-99.602zm97.28 78.804h32.14l-15.81-49.844-16.33 49.843zm1.633-78.805h29.907l44.86 126.67h-28.704l-8.166-26.04h-46.664l-8.765 26.04h-27.672l45.203-126.67zm115.07 126.67h-26.296v-126.672h26.297V1524zm24.235-126.672h27.76l50.445 88.43v-88.43h24.664V1524h-26.47l-51.734-89.977V1524h-24.664v-126.672zM775 664.733V547.367h184.367V363h118.266v184.367H1262v117.366h-184.367V850H959.367V664.733H775zm13 511h462v122H788v-122z"/></g></g></svg>