<?xml version="1.0" encoding="UTF-8"?>
<!DOCTYPE svg PUBLIC "-//W3C//DTD SVG 1.1//EN" "http://www.w3.org/Graphics/SVG/1.1/DTD/svg11.dtd">
<!-- Creator: CorelDRAW 2020 (64-Bit) -->
<svg xmlns="http://www.w3.org/2000/svg" xml:space="preserve" width="84.6666mm" height="84.6666mm" version="1.1" style="shape-rendering:geometricPrecision; text-rendering:geometricPrecision; image-rendering:optimizeQuality; fill-rule:evenodd; clip-rule:evenodd"
viewBox="0 0 8466.66 8466.66"
 xmlns:xlink="http://www.w3.org/1999/xlink"
 xmlns:xodm="http://www.corel.com/coreldraw/odm/2003">
 <defs>
  <style type="text/css">
   <![CDATA[
    .str0 {stroke:#FEFEFE;stroke-width:67.73;stroke-miterlimit:22.9256}
    .str1 {stroke:#FEFEFE;stroke-width:211.67;stroke-miterlimit:22.9256}
    .fil1 {fill:none}
    .fil0 {fill:black}
    .fil2 {fill:#FEFEFE;fill-rule:nonzero}
    .fil5 {fill:#FFF212;fill-rule:nonzero}
    .fil6 {fill:#F6AFCE;fill-rule:nonzero}
    .fil7 {fill:#91D8F7;fill-rule:nonzero}
    .fil4 {fill:#70E0F4;fill-rule:nonzero}
    .fil3 {fill:#87EEA9;fill-rule:nonzero}
   ]]>
  </style>
 </defs>
 <g id="Слой_x0020_1">
  <metadata id="CorelCorpID_0Corel-Layer"/>
  <path class="fil0 str0" d="M4211.98 178.36c2245.9,0 4066.71,1813.99 4066.71,4051.55 0,2237.55 -1820.81,4051.56 -4066.71,4051.56 -2245.89,0 -4066.7,-1814.01 -4066.7,-4051.56 0,-2237.56 1820.81,-4051.55 4066.7,-4051.55z"/>
  <path class="fil1 str1" d="M4220.45 722.07c1944.28,0 3520.48,1570.33 3520.48,3507.35 0,1937.05 -1576.2,3507.35 -3520.48,3507.35 -1944.25,0 -3520.48,-1570.3 -3520.48,-3507.35 0,-1937.02 1576.23,-3507.35 3520.48,-3507.35z"/>
  <g id="_1750015561072">
   <path class="fil2" d="M4458.61 4703.61c0,16.45 -6.08,30.72 -18.29,42.8 -12.17,12.11 -26.58,18.15 -43.14,18.15 -16.59,0 -30.97,-6.04 -43.15,-18.15 -12.2,-12.08 -18.29,-26.35 -18.29,-42.8 0,-16.43 6.09,-30.72 18.29,-42.8 12.18,-12.11 26.56,-18.15 43.15,-18.15 16.56,0 30.97,6.04 43.14,18.15 12.21,12.08 18.29,26.37 18.29,42.8z"/>
   <path class="fil3" d="M4612.19 4703.61c0,16.45 -6.09,30.72 -18.27,42.8 -12.2,12.11 -26.58,18.15 -43.15,18.15 -16.58,0 -30.97,-6.04 -43.17,-18.15 -12.18,-12.08 -18.27,-26.35 -18.27,-42.8 0,-16.43 6.09,-30.72 18.27,-42.8 12.2,-12.11 26.59,-18.15 43.17,-18.15 16.57,0 30.95,6.04 43.15,18.15 12.18,12.08 18.27,26.37 18.27,42.8z"/>
   <path class="fil4" d="M4458.61 4551.24c0,16.46 -6.08,30.72 -18.29,42.83 -12.17,12.08 -26.58,18.12 -43.14,18.12 -16.59,0 -30.97,-6.04 -43.15,-18.12 -12.2,-12.11 -18.29,-26.37 -18.29,-42.83 0,-16.43 6.09,-30.7 18.29,-42.8 12.18,-12.08 26.56,-18.12 43.15,-18.12 16.56,0 30.97,6.04 43.14,18.12 12.21,12.1 18.29,26.37 18.29,42.8z"/>
   <path class="fil5" d="M4767.26 4703.61c0,16.45 -6.11,30.72 -18.29,42.8 -12.2,12.11 -26.58,18.15 -43.15,18.15 -16.58,0 -30.97,-6.04 -43.17,-18.15 -12.18,-12.08 -18.26,-26.35 -18.26,-42.8 0,-16.43 6.08,-30.72 18.26,-42.8 12.2,-12.11 26.59,-18.15 43.17,-18.15 16.57,0 30.95,6.04 43.15,18.15 12.18,12.08 18.29,26.37 18.29,42.8z"/>
   <path class="fil2" d="M4458.61 4397.43c0,16.46 -6.08,30.72 -18.29,42.83 -12.17,12.08 -26.58,18.12 -43.14,18.12 -16.59,0 -30.97,-6.04 -43.15,-18.12 -12.2,-12.11 -18.29,-26.37 -18.29,-42.83 0,-16.43 6.09,-30.7 18.29,-42.8 12.18,-12.08 26.56,-18.15 43.15,-18.15 16.56,0 30.97,6.07 43.14,18.15 12.21,12.1 18.29,26.37 18.29,42.8z"/>
   <path class="fil6" d="M4920.84 4703.61c0,16.45 -6.09,30.72 -18.29,42.8 -12.18,12.11 -26.56,18.15 -43.15,18.15 -16.56,0 -30.95,-6.04 -43.15,-18.15 -12.18,-12.08 -18.29,-26.35 -18.29,-42.8 0,-16.43 6.11,-30.72 18.29,-42.8 12.2,-12.11 26.59,-18.15 43.15,-18.15 16.59,0 30.97,6.04 43.15,18.15 12.2,12.08 18.29,26.37 18.29,42.8z"/>
   <path class="fil5" d="M4458.61 4245.09c0,16.43 -6.08,30.7 -18.29,42.8 -12.17,12.08 -26.58,18.15 -43.14,18.15 -16.59,0 -30.97,-6.07 -43.15,-18.15 -12.2,-12.1 -18.29,-26.37 -18.29,-42.8 0,-16.46 6.09,-30.72 18.29,-42.8 12.18,-12.11 26.56,-18.15 43.15,-18.15 16.56,0 30.97,6.04 43.14,18.15 12.21,12.08 18.29,26.34 18.29,42.8z"/>
   <path class="fil2" d="M5074.43 4703.61c0,16.45 -6.08,30.72 -18.29,42.8 -12.17,12.11 -26.56,18.15 -43.14,18.15 -16.59,0 -30.97,-6.04 -43.15,-18.15 -12.2,-12.08 -18.29,-26.35 -18.29,-42.8 0,-16.43 6.09,-30.72 18.29,-42.8 12.18,-12.11 26.56,-18.15 43.15,-18.15 16.58,0 30.97,6.04 43.14,18.15 12.21,12.08 18.29,26.37 18.29,42.8z"/>
   <path class="fil2" d="M4612.19 4245.09c0,16.43 -6.09,30.7 -18.27,42.8 -12.2,12.08 -26.58,18.15 -43.15,18.15 -16.58,0 -30.97,-6.07 -43.17,-18.15 -12.18,-12.1 -18.27,-26.37 -18.27,-42.8 0,-16.46 6.09,-30.72 18.27,-42.8 12.2,-12.11 26.59,-18.15 43.17,-18.15 16.57,0 30.95,6.04 43.15,18.15 12.18,12.08 18.27,26.34 18.27,42.8z"/>
   <path class="fil6" d="M4458.61 4092.72c0,16.45 -6.08,30.72 -18.29,42.8 -12.17,12.11 -26.58,18.15 -43.14,18.15 -16.59,0 -30.97,-6.04 -43.15,-18.15 -12.2,-12.08 -18.29,-26.35 -18.29,-42.8 0,-16.46 6.09,-30.72 18.29,-42.8 12.18,-12.11 26.56,-18.15 43.15,-18.15 16.56,0 30.97,6.04 43.14,18.15 12.21,12.08 18.29,26.34 18.29,42.8z"/>
   <path class="fil7" d="M4767.26 4245.09c0,16.43 -6.11,30.7 -18.29,42.8 -12.2,12.08 -26.58,18.15 -43.15,18.15 -16.58,0 -30.97,-6.07 -43.17,-18.15 -12.18,-12.1 -18.26,-26.37 -18.26,-42.8 0,-16.46 6.08,-30.72 18.26,-42.8 12.2,-12.11 26.59,-18.15 43.17,-18.15 16.57,0 30.95,6.04 43.15,18.15 12.18,12.08 18.29,26.34 18.29,42.8z"/>
   <path class="fil2" d="M4458.61 3940.35c0,16.46 -6.08,30.72 -18.29,42.8 -12.17,12.11 -26.58,18.15 -43.14,18.15 -16.59,0 -30.97,-6.04 -43.15,-18.15 -12.2,-12.08 -18.29,-26.34 -18.29,-42.8 0,-16.43 6.09,-30.94 18.29,-43.52 12.18,-12.58 26.56,-18.87 43.15,-18.87 16.56,0 30.97,6.29 43.14,18.87 12.21,12.58 18.29,27.09 18.29,43.52z"/>
   <path class="fil3" d="M4920.84 4245.09c0,16.43 -6.09,30.7 -18.29,42.8 -12.18,12.08 -26.56,18.15 -43.15,18.15 -16.56,0 -30.95,-6.07 -43.15,-18.15 -12.18,-12.1 -18.29,-26.37 -18.29,-42.8 0,-16.46 6.11,-30.72 18.29,-42.8 12.2,-12.11 26.59,-18.15 43.15,-18.15 16.59,0 30.97,6.04 43.15,18.15 12.2,12.08 18.29,26.34 18.29,42.8z"/>
   <path class="fil2" d="M4458.61 3786.54c0,16.46 -6.08,30.72 -18.29,42.8 -12.17,12.11 -26.58,18.15 -43.14,18.15 -16.59,0 -30.97,-6.04 -43.15,-18.15 -12.2,-12.08 -18.29,-26.34 -18.29,-42.8 0,-16.43 6.09,-30.7 18.29,-42.8 12.18,-12.08 26.56,-18.15 43.15,-18.15 16.56,0 30.97,6.07 43.14,18.15 12.21,12.1 18.29,26.37 18.29,42.8z"/>
   <path class="fil3" d="M4612.19 3786.54c0,16.46 -6.09,30.72 -18.27,42.8 -12.2,12.11 -26.58,18.15 -43.15,18.15 -16.58,0 -30.97,-6.04 -43.17,-18.15 -12.18,-12.08 -18.27,-26.34 -18.27,-42.8 0,-16.43 6.09,-30.7 18.27,-42.8 12.2,-12.08 26.59,-18.15 43.17,-18.15 16.57,0 30.95,6.07 43.15,18.15 12.18,12.1 18.27,26.37 18.27,42.8z"/>
   <path class="fil7" d="M4767.26 3786.54c0,16.46 -6.11,30.72 -18.29,42.8 -12.2,12.11 -26.58,18.15 -43.15,18.15 -16.58,0 -30.97,-6.04 -43.17,-18.15 -12.18,-12.08 -18.26,-26.34 -18.26,-42.8 0,-16.43 6.08,-30.7 18.26,-42.8 12.2,-12.08 26.59,-18.15 43.17,-18.15 16.57,0 30.95,6.07 43.15,18.15 12.18,12.1 18.29,26.37 18.29,42.8z"/>
   <path class="fil6" d="M4920.84 3786.54c0,16.46 -6.09,30.72 -18.29,42.8 -12.18,12.11 -26.56,18.15 -43.15,18.15 -16.56,0 -30.95,-6.04 -43.15,-18.15 -12.18,-12.08 -18.29,-26.34 -18.29,-42.8 0,-16.43 6.11,-30.7 18.29,-42.8 12.2,-12.08 26.59,-18.15 43.15,-18.15 16.59,0 30.97,6.07 43.15,18.15 12.2,12.1 18.29,26.37 18.29,42.8z"/>
   <path class="fil5" d="M5074.43 3786.54c0,16.46 -6.08,30.72 -18.29,42.8 -12.17,12.11 -26.56,18.15 -43.14,18.15 -16.59,0 -30.97,-6.04 -43.15,-18.15 -12.2,-12.08 -18.29,-26.34 -18.29,-42.8 0,-16.43 6.09,-30.7 18.29,-42.8 12.18,-12.08 26.56,-18.15 43.15,-18.15 16.58,0 30.97,6.07 43.14,18.15 12.21,12.1 18.29,26.37 18.29,42.8z"/>
   <path class="fil3" d="M3343.03 4703.61c0,16.45 -6.09,30.72 -18.29,42.8 -12.18,12.11 -26.59,18.15 -43.15,18.15 -16.59,0 -30.97,-6.04 -43.15,-18.15 -12.2,-12.08 -18.29,-26.35 -18.29,-42.8 0,-16.43 6.09,-30.72 18.29,-42.8 12.18,-12.11 26.56,-18.15 43.15,-18.15 16.56,0 30.97,6.04 43.15,18.15 12.2,12.08 18.29,26.37 18.29,42.8z"/>
   <path class="fil6" d="M3343.03 4551.24c0,16.46 -6.09,30.72 -18.29,42.83 -12.18,12.08 -26.59,18.12 -43.15,18.12 -16.59,0 -30.97,-6.04 -43.15,-18.12 -12.2,-12.11 -18.29,-26.37 -18.29,-42.83 0,-16.43 6.09,-30.7 18.29,-42.8 12.18,-12.08 26.56,-18.12 43.15,-18.12 16.56,0 30.97,6.04 43.15,18.12 12.2,12.1 18.29,26.37 18.29,42.8z"/>
   <path class="fil2" d="M3496.6 4397.43c0,16.46 -6.08,30.72 -18.26,42.83 -12.2,12.08 -26.59,18.12 -43.15,18.12 -16.59,0 -30.97,-6.04 -43.17,-18.12 -12.18,-12.11 -18.27,-26.37 -18.27,-42.83 0,-16.43 6.09,-30.7 18.27,-42.8 12.2,-12.08 26.58,-18.15 43.17,-18.15 16.56,0 30.95,6.07 43.15,18.15 12.18,12.1 18.26,26.37 18.26,42.8z"/>
   <path class="fil6" d="M3958.85 4703.61c0,16.45 -6.09,30.72 -18.29,42.8 -12.18,12.11 -26.56,18.15 -43.15,18.15 -16.59,0 -30.97,-6.04 -43.15,-18.15 -12.2,-12.08 -18.29,-26.35 -18.29,-42.8 0,-16.43 6.09,-30.72 18.29,-42.8 12.18,-12.11 26.56,-18.15 43.15,-18.15 16.59,0 30.97,6.04 43.15,18.15 12.2,12.08 18.29,26.37 18.29,42.8z"/>
   <path class="fil5" d="M3958.85 4551.24c0,16.46 -6.09,30.72 -18.29,42.83 -12.18,12.08 -26.56,18.12 -43.15,18.12 -16.59,0 -30.97,-6.04 -43.15,-18.12 -12.2,-12.11 -18.29,-26.37 -18.29,-42.83 0,-16.43 6.09,-30.7 18.29,-42.8 12.18,-12.08 26.56,-18.12 43.15,-18.12 16.59,0 30.97,6.04 43.15,18.12 12.2,12.1 18.29,26.37 18.29,42.8z"/>
   <path class="fil3" d="M3805.25 4397.43c0,16.46 -6.09,30.72 -18.29,42.83 -12.18,12.08 -26.56,18.12 -43.15,18.12 -16.56,0 -30.94,-6.04 -43.14,-18.12 -12.18,-12.11 -18.29,-26.37 -18.29,-42.83 0,-16.43 6.11,-30.7 18.29,-42.8 12.2,-12.08 26.58,-18.15 43.14,-18.15 16.59,0 30.97,6.07 43.15,18.15 12.2,12.1 18.29,26.37 18.29,42.8z"/>
   <path class="fil2" d="M3651.68 4245.09c0,16.43 -6.11,30.7 -18.29,42.8 -12.2,12.08 -26.59,18.15 -43.15,18.15 -16.59,0 -30.97,-6.07 -43.17,-18.15 -12.18,-12.1 -18.27,-26.37 -18.27,-42.8 0,-16.46 6.09,-30.72 18.27,-42.8 12.2,-12.11 26.58,-18.15 43.17,-18.15 16.56,0 30.95,6.04 43.15,18.15 12.18,12.08 18.29,26.34 18.29,42.8z"/>
   <path class="fil7" d="M3496.6 4092.72c0,16.45 -6.08,30.72 -18.26,42.8 -12.2,12.11 -26.59,18.15 -43.15,18.15 -16.59,0 -30.97,-6.04 -43.17,-18.15 -12.18,-12.08 -18.27,-26.35 -18.27,-42.8 0,-16.46 6.09,-30.72 18.27,-42.8 12.2,-12.11 26.58,-18.15 43.17,-18.15 16.56,0 30.95,6.04 43.15,18.15 12.18,12.08 18.26,26.34 18.26,42.8z"/>
   <path class="fil2" d="M3343.03 3940.35c0,16.46 -6.09,30.72 -18.29,42.8 -12.18,12.11 -26.59,18.15 -43.15,18.15 -16.59,0 -30.97,-6.04 -43.15,-18.15 -12.2,-12.08 -18.29,-26.34 -18.29,-42.8 0,-16.43 6.09,-30.94 18.29,-43.52 12.18,-12.58 26.56,-18.87 43.15,-18.87 16.56,0 30.97,6.29 43.15,18.87 12.2,12.58 18.29,27.09 18.29,43.52z"/>
   <path class="fil3" d="M3343.03 3786.54c0,16.46 -6.09,30.72 -18.29,42.8 -12.18,12.11 -26.59,18.15 -43.15,18.15 -16.59,0 -30.97,-6.04 -43.15,-18.15 -12.2,-12.08 -18.29,-26.34 -18.29,-42.8 0,-16.43 6.09,-30.7 18.29,-42.8 12.18,-12.08 26.56,-18.15 43.15,-18.15 16.56,0 30.97,6.07 43.15,18.15 12.2,12.1 18.29,26.37 18.29,42.8z"/>
   <path class="fil6" d="M3805.25 4092.72c0,16.45 -6.09,30.72 -18.29,42.8 -12.18,12.11 -26.56,18.15 -43.15,18.15 -16.56,0 -30.94,-6.04 -43.14,-18.15 -12.18,-12.08 -18.29,-26.35 -18.29,-42.8 0,-16.46 6.11,-30.72 18.29,-42.8 12.2,-12.11 26.58,-18.15 43.14,-18.15 16.59,0 30.97,6.04 43.15,18.15 12.2,12.08 18.29,26.34 18.29,42.8z"/>
   <path class="fil2" d="M3958.85 3940.35c0,16.46 -6.09,30.72 -18.29,42.8 -12.18,12.11 -26.56,18.15 -43.15,18.15 -16.59,0 -30.97,-6.04 -43.15,-18.15 -12.2,-12.08 -18.29,-26.34 -18.29,-42.8 0,-16.43 6.09,-30.94 18.29,-43.52 12.18,-12.58 26.56,-18.87 43.15,-18.87 16.59,0 30.97,6.29 43.15,18.87 12.2,12.58 18.29,27.09 18.29,43.52z"/>
   <path class="fil5" d="M3958.85 3786.54c0,16.46 -6.09,30.72 -18.29,42.8 -12.18,12.11 -26.56,18.15 -43.15,18.15 -16.59,0 -30.97,-6.04 -43.15,-18.15 -12.2,-12.08 -18.29,-26.34 -18.29,-42.8 0,-16.43 6.09,-30.7 18.29,-42.8 12.18,-12.08 26.56,-18.15 43.15,-18.15 16.59,0 30.97,6.07 43.15,18.15 12.2,12.1 18.29,26.37 18.29,42.8z"/>
   <path class="fil5" d="M2534.64 4703.61c0,16.45 -6.09,30.72 -18.29,42.8 -12.18,12.11 -26.58,18.15 -43.15,18.15 -16.58,0 -30.97,-6.04 -43.14,-18.15 -12.21,-12.08 -18.29,-26.35 -18.29,-42.8 0,-16.43 6.08,-30.72 18.29,-42.8 12.17,-12.11 26.56,-18.15 43.14,-18.15 16.57,0 30.97,6.04 43.15,18.15 12.2,12.08 18.29,26.37 18.29,42.8z"/>
   <path class="fil2" d="M2688.22 4703.61c0,16.45 -5.84,30.72 -17.54,42.8 -11.7,12.11 -26.34,18.15 -43.88,18.15 -16.59,0 -30.97,-6.04 -43.17,-18.15 -12.18,-12.08 -18.27,-26.35 -18.27,-42.8 0,-16.43 6.09,-30.72 18.27,-42.8 12.2,-12.11 26.58,-18.15 43.17,-18.15 17.54,0 32.18,6.04 43.88,18.15 11.7,12.08 17.54,26.37 17.54,42.8z"/>
   <path class="fil7" d="M2843.29 4703.61c0,16.45 -6.11,30.72 -18.29,42.8 -12.2,12.11 -26.58,18.15 -43.15,18.15 -17.56,0 -32.19,-6.04 -43.9,-18.15 -11.7,-12.08 -17.54,-26.35 -17.54,-42.8 0,-16.43 5.84,-30.72 17.54,-42.8 11.71,-12.11 26.34,-18.15 43.9,-18.15 16.57,0 30.95,6.04 43.15,18.15 12.18,12.08 18.29,26.37 18.29,42.8z"/>
   <path class="fil3" d="M2688.22 4551.24c0,16.46 -5.84,30.72 -17.54,42.83 -11.7,12.08 -26.34,18.12 -43.88,18.12 -16.59,0 -30.97,-6.04 -43.17,-18.12 -12.18,-12.11 -18.27,-26.37 -18.27,-42.83 0,-17.4 6.09,-31.91 18.27,-43.52 12.2,-11.61 26.58,-17.4 43.17,-17.4 17.54,0 32.18,5.79 43.88,17.4 11.7,11.61 17.54,26.12 17.54,43.52z"/>
   <path class="fil2" d="M2688.22 4397.43c0,17.43 -5.84,31.94 -17.54,43.55 -11.7,11.61 -26.34,17.4 -43.88,17.4 -16.59,0 -30.97,-5.79 -43.17,-17.4 -12.18,-11.61 -18.27,-26.12 -18.27,-43.55 0,-16.43 6.09,-30.7 18.27,-42.8 12.2,-12.08 26.58,-18.15 43.17,-18.15 17.54,0 32.18,6.07 43.88,18.15 11.7,12.1 17.54,26.37 17.54,42.8z"/>
   <path class="fil6" d="M2688.22 4245.09c0,16.43 -5.84,30.7 -17.54,42.8 -11.7,12.08 -26.34,18.15 -43.88,18.15 -16.59,0 -30.97,-6.07 -43.17,-18.15 -12.18,-12.1 -18.27,-26.37 -18.27,-42.8 0,-16.46 6.09,-30.72 18.27,-42.8 12.2,-12.11 26.58,-18.15 43.17,-18.15 17.54,0 32.18,6.04 43.88,18.15 11.7,12.08 17.54,26.34 17.54,42.8z"/>
   <path class="fil2" d="M2688.22 4092.72c0,16.45 -5.84,30.72 -17.54,42.8 -11.7,12.11 -26.34,18.15 -43.88,18.15 -16.59,0 -30.97,-6.04 -43.17,-18.15 -12.18,-12.08 -18.27,-26.35 -18.27,-42.8 0,-16.46 6.09,-30.72 18.27,-42.8 12.2,-12.11 26.58,-18.15 43.17,-18.15 17.54,0 32.18,6.04 43.88,18.15 11.7,12.08 17.54,26.34 17.54,42.8z"/>
   <path class="fil2" d="M2688.22 3940.35c0,16.46 -5.84,30.72 -17.54,42.8 -11.7,12.11 -26.34,18.15 -43.88,18.15 -16.59,0 -30.97,-6.04 -43.17,-18.15 -12.18,-12.08 -18.27,-26.34 -18.27,-42.8 0,-17.4 6.09,-32.16 18.27,-44.24 12.2,-12.11 26.58,-18.15 43.17,-18.15 17.54,0 32.18,6.04 43.88,18.15 11.7,12.08 17.54,26.84 17.54,44.24z"/>
   <path class="fil6" d="M2534.64 3786.54c0,16.46 -6.09,30.72 -18.29,42.8 -12.18,12.11 -26.58,18.15 -43.15,18.15 -16.58,0 -30.97,-6.04 -43.14,-18.15 -12.21,-12.08 -18.29,-26.34 -18.29,-42.8 0,-16.43 6.08,-30.7 18.29,-42.8 12.17,-12.08 26.56,-18.15 43.14,-18.15 16.57,0 30.97,6.07 43.15,18.15 12.2,12.1 18.29,26.37 18.29,42.8z"/>
   <path class="fil7" d="M2688.22 3786.54c0,16.46 -5.84,30.72 -17.54,42.8 -11.7,12.11 -26.34,18.15 -43.88,18.15 -16.59,0 -30.97,-6.04 -43.17,-18.15 -12.18,-12.08 -18.27,-26.34 -18.27,-42.8 0,-16.43 6.09,-30.7 18.27,-42.8 12.2,-12.08 26.58,-18.15 43.17,-18.15 17.54,0 32.18,6.07 43.88,18.15 11.7,12.1 17.54,26.37 17.54,42.8z"/>
   <path class="fil3" d="M2843.29 3786.54c0,16.46 -6.11,30.72 -18.29,42.8 -12.2,12.11 -26.58,18.15 -43.15,18.15 -17.56,0 -32.19,-6.04 -43.9,-18.15 -11.7,-12.08 -17.54,-26.34 -17.54,-42.8 0,-16.43 5.84,-30.7 17.54,-42.8 11.71,-12.08 26.34,-18.15 43.9,-18.15 16.57,0 30.95,6.07 43.15,18.15 12.18,12.1 18.29,26.37 18.29,42.8z"/>
   <path class="fil2" d="M1537.6 4703.61c0,16.45 -6.09,30.72 -18.29,42.8 -12.18,12.11 -26.59,18.15 -43.15,18.15 -16.59,0 -30.97,-6.04 -43.15,-18.15 -12.2,-12.08 -18.29,-26.35 -18.29,-42.8 0,-16.43 6.09,-30.72 18.29,-42.8 12.18,-12.11 26.56,-18.15 43.15,-18.15 16.56,0 30.97,6.04 43.15,18.15 12.2,12.08 18.29,26.37 18.29,42.8z"/>
   <path class="fil2" d="M1537.6 4551.24c0,16.46 -6.09,30.72 -18.29,42.83 -12.18,12.08 -26.59,18.12 -43.15,18.12 -16.59,0 -30.97,-6.04 -43.15,-18.12 -12.2,-12.11 -18.29,-26.37 -18.29,-42.83 0,-16.43 6.09,-30.7 18.29,-42.8 12.18,-12.08 26.56,-18.12 43.15,-18.12 16.56,0 30.97,6.04 43.15,18.12 12.2,12.1 18.29,26.37 18.29,42.8z"/>
   <path class="fil7" d="M1537.6 4397.43c0,16.46 -6.09,30.72 -18.29,42.83 -12.18,12.08 -26.59,18.12 -43.15,18.12 -16.59,0 -30.97,-6.04 -43.15,-18.12 -12.2,-12.11 -18.29,-26.37 -18.29,-42.83 0,-16.43 6.09,-30.7 18.29,-42.8 12.18,-12.08 26.56,-18.15 43.15,-18.15 16.56,0 30.97,6.07 43.15,18.15 12.2,12.1 18.29,26.37 18.29,42.8z"/>
   <path class="fil2" d="M1537.6 4245.09c0,16.43 -6.09,30.7 -18.29,42.8 -12.18,12.08 -26.59,18.15 -43.15,18.15 -16.59,0 -30.97,-6.07 -43.15,-18.15 -12.2,-12.1 -18.29,-26.37 -18.29,-42.8 0,-16.46 6.09,-30.72 18.29,-42.8 12.18,-12.11 26.56,-18.15 43.15,-18.15 16.56,0 30.97,6.04 43.15,18.15 12.2,12.08 18.29,26.34 18.29,42.8z"/>
   <path class="fil2" d="M1691.17 4245.09c0,16.43 -6.09,30.7 -18.27,42.8 -12.2,12.08 -26.58,18.15 -43.14,18.15 -16.59,0 -30.97,-6.07 -43.18,-18.15 -12.17,-12.1 -18.26,-26.37 -18.26,-42.8 0,-16.46 6.09,-30.72 18.26,-42.8 12.21,-12.11 26.59,-18.15 43.18,-18.15 16.56,0 30.94,6.04 43.14,18.15 12.18,12.08 18.27,26.34 18.27,42.8z"/>
   <path class="fil2" d="M1537.6 4092.72c0,16.45 -6.09,30.72 -18.29,42.8 -12.18,12.11 -26.59,18.15 -43.15,18.15 -16.59,0 -30.97,-6.04 -43.15,-18.15 -12.2,-12.08 -18.29,-26.35 -18.29,-42.8 0,-16.46 6.09,-30.72 18.29,-42.8 12.18,-12.11 26.56,-18.15 43.15,-18.15 16.56,0 30.97,6.04 43.15,18.15 12.2,12.08 18.29,26.34 18.29,42.8z"/>
   <path class="fil3" d="M1846.25 4245.09c0,16.43 -6.12,30.7 -18.3,42.8 -12.2,12.08 -26.58,18.15 -43.14,18.15 -16.59,0 -30.97,-6.07 -43.18,-18.15 -12.17,-12.1 -18.26,-26.37 -18.26,-42.8 0,-16.46 6.09,-30.72 18.26,-42.8 12.21,-12.11 26.59,-18.15 43.18,-18.15 16.56,0 30.94,6.04 43.14,18.15 12.18,12.08 18.3,26.34 18.3,42.8z"/>
   <path class="fil5" d="M1537.6 3940.35c0,16.46 -6.09,30.72 -18.29,42.8 -12.18,12.11 -26.59,18.15 -43.15,18.15 -16.59,0 -30.97,-6.04 -43.15,-18.15 -12.2,-12.08 -18.29,-26.34 -18.29,-42.8 0,-16.43 6.09,-30.94 18.29,-43.52 12.18,-12.58 26.56,-18.87 43.15,-18.87 16.56,0 30.97,6.29 43.15,18.87 12.2,12.58 18.29,27.09 18.29,43.52z"/>
   <path class="fil5" d="M1999.82 4245.09c0,16.43 -6.09,30.7 -18.29,42.8 -12.18,12.08 -26.56,18.15 -43.15,18.15 -16.56,0 -30.95,-6.07 -43.15,-18.15 -12.18,-12.1 -18.29,-26.37 -18.29,-42.8 0,-16.46 6.11,-30.72 18.29,-42.8 12.2,-12.11 26.59,-18.15 43.15,-18.15 16.59,0 30.97,6.04 43.15,18.15 12.2,12.08 18.29,26.34 18.29,42.8z"/>
   <path class="fil2" d="M1537.6 3786.54c0,16.46 -6.09,30.72 -18.29,42.8 -12.18,12.11 -26.59,18.15 -43.15,18.15 -16.59,0 -30.97,-6.04 -43.15,-18.15 -12.2,-12.08 -18.29,-26.34 -18.29,-42.8 0,-16.43 6.09,-30.7 18.29,-42.8 12.18,-12.08 26.56,-18.15 43.15,-18.15 16.56,0 30.97,6.07 43.15,18.15 12.2,12.1 18.29,26.37 18.29,42.8z"/>
   <path class="fil3" d="M1691.17 3786.54c0,16.46 -6.09,30.72 -18.27,42.8 -12.2,12.11 -26.58,18.15 -43.14,18.15 -16.59,0 -30.97,-6.04 -43.18,-18.15 -12.17,-12.08 -18.26,-26.34 -18.26,-42.8 0,-16.43 6.09,-30.7 18.26,-42.8 12.21,-12.08 26.59,-18.15 43.18,-18.15 16.56,0 30.94,6.07 43.14,18.15 12.18,12.1 18.27,26.37 18.27,42.8z"/>
   <path class="fil2" d="M2153.42 4092.72c0,16.45 -6.09,30.72 -18.29,42.8 -12.18,12.11 -26.56,18.15 -43.15,18.15 -16.59,0 -30.97,-6.04 -43.15,-18.15 -12.2,-12.08 -18.29,-26.35 -18.29,-42.8 0,-16.46 6.09,-30.72 18.29,-42.8 12.18,-12.11 26.56,-18.15 43.15,-18.15 16.59,0 30.97,6.04 43.15,18.15 12.2,12.08 18.29,26.34 18.29,42.8z"/>
   <path class="fil2" d="M1846.25 3786.54c0,16.46 -6.12,30.72 -18.3,42.8 -12.2,12.11 -26.58,18.15 -43.14,18.15 -16.59,0 -30.97,-6.04 -43.18,-18.15 -12.17,-12.08 -18.26,-26.34 -18.26,-42.8 0,-16.43 6.09,-30.7 18.26,-42.8 12.21,-12.08 26.59,-18.15 43.18,-18.15 16.56,0 30.94,6.07 43.14,18.15 12.18,12.1 18.3,26.37 18.3,42.8z"/>
   <path class="fil7" d="M2153.42 3940.35c0,16.46 -6.09,30.72 -18.29,42.8 -12.18,12.11 -26.56,18.15 -43.15,18.15 -16.59,0 -30.97,-6.04 -43.15,-18.15 -12.2,-12.08 -18.29,-26.34 -18.29,-42.8 0,-16.43 6.09,-30.94 18.29,-43.52 12.18,-12.58 26.56,-18.87 43.15,-18.87 16.59,0 30.97,6.29 43.15,18.87 12.2,12.58 18.29,27.09 18.29,43.52z"/>
   <path class="fil6" d="M1999.82 3786.54c0,16.46 -6.09,30.72 -18.29,42.8 -12.18,12.11 -26.56,18.15 -43.15,18.15 -16.56,0 -30.95,-6.04 -43.15,-18.15 -12.18,-12.08 -18.29,-26.34 -18.29,-42.8 0,-16.43 6.11,-30.7 18.29,-42.8 12.2,-12.08 26.59,-18.15 43.15,-18.15 16.59,0 30.97,6.07 43.15,18.15 12.2,12.1 18.29,26.37 18.29,42.8z"/>
   <path class="fil5" d="M6563.95 4703.61c0,16.45 -6.09,30.72 -18.27,42.8 -12.2,12.11 -26.58,18.15 -43.15,18.15 -16.58,0 -30.97,-6.04 -43.17,-18.15 -12.18,-12.08 -18.27,-26.35 -18.27,-42.8 0,-16.43 6.09,-30.72 18.27,-42.8 12.2,-12.11 26.59,-18.15 43.17,-18.15 16.57,0 30.95,6.04 43.15,18.15 12.18,12.08 18.27,26.37 18.27,42.8z"/>
   <path class="fil7" d="M6410.37 4551.24c0,16.46 -6.08,30.72 -18.29,42.83 -12.17,12.08 -26.58,18.12 -43.14,18.12 -16.59,0 -30.97,-6.04 -43.15,-18.12 -12.2,-12.11 -18.29,-26.37 -18.29,-42.83 0,-16.43 6.09,-30.7 18.29,-42.8 12.18,-12.08 26.56,-18.12 43.15,-18.12 16.56,0 30.97,6.04 43.14,18.12 12.21,12.1 18.29,26.37 18.29,42.8z"/>
   <path class="fil6" d="M6719.02 4703.61c0,16.45 -6.11,30.72 -18.29,42.8 -12.2,12.11 -26.58,18.15 -43.15,18.15 -16.58,0 -30.97,-6.04 -43.17,-18.15 -12.18,-12.08 -18.26,-26.35 -18.26,-42.8 0,-16.43 6.08,-30.72 18.26,-42.8 12.2,-12.11 26.59,-18.15 43.17,-18.15 16.57,0 30.95,6.04 43.15,18.15 12.18,12.08 18.29,26.37 18.29,42.8z"/>
   <path class="fil3" d="M6872.6 4703.61c0,16.45 -6.09,30.72 -18.29,42.8 -12.18,12.11 -26.56,18.15 -43.15,18.15 -16.56,0 -30.95,-6.04 -43.15,-18.15 -12.18,-12.08 -18.29,-26.35 -18.29,-42.8 0,-16.43 6.11,-30.72 18.29,-42.8 12.2,-12.11 26.59,-18.15 43.15,-18.15 16.59,0 30.97,6.04 43.15,18.15 12.2,12.08 18.29,26.37 18.29,42.8z"/>
   <path class="fil6" d="M6563.95 4245.09c0,16.43 -6.09,30.7 -18.27,42.8 -12.2,12.08 -26.58,18.15 -43.15,18.15 -16.58,0 -30.97,-6.07 -43.17,-18.15 -12.18,-12.1 -18.27,-26.37 -18.27,-42.8 0,-16.46 6.09,-30.72 18.27,-42.8 12.2,-12.11 26.59,-18.15 43.17,-18.15 16.57,0 30.95,6.04 43.15,18.15 12.18,12.08 18.27,26.34 18.27,42.8z"/>
   <path class="fil3" d="M6410.37 4092.72c0,16.45 -6.08,30.72 -18.29,42.8 -12.17,12.11 -26.58,18.15 -43.14,18.15 -16.59,0 -30.97,-6.04 -43.15,-18.15 -12.2,-12.08 -18.29,-26.35 -18.29,-42.8 0,-16.46 6.09,-30.72 18.29,-42.8 12.18,-12.11 26.56,-18.15 43.15,-18.15 16.56,0 30.97,6.04 43.14,18.15 12.21,12.08 18.29,26.34 18.29,42.8z"/>
   <path class="fil2" d="M7026.19 4551.24c0,16.46 -6.08,30.72 -18.29,42.83 -12.17,12.08 -26.56,18.12 -43.14,18.12 -16.59,0 -30.97,-6.04 -43.15,-18.12 -12.2,-12.11 -18.29,-26.37 -18.29,-42.83 0,-16.43 6.09,-30.7 18.29,-42.8 12.18,-12.08 26.56,-18.12 43.15,-18.12 16.58,0 30.97,6.04 43.14,18.12 12.21,12.1 18.29,26.37 18.29,42.8z"/>
   <path class="fil2" d="M6719.02 4245.09c0,16.43 -6.11,30.7 -18.29,42.8 -12.2,12.08 -26.58,18.15 -43.15,18.15 -16.58,0 -30.97,-6.07 -43.17,-18.15 -12.18,-12.1 -18.26,-26.37 -18.26,-42.8 0,-16.46 6.08,-30.72 18.26,-42.8 12.2,-12.11 26.59,-18.15 43.17,-18.15 16.57,0 30.95,6.04 43.15,18.15 12.18,12.08 18.29,26.34 18.29,42.8z"/>
   <path class="fil5" d="M6410.37 3940.35c0,16.46 -6.08,30.72 -18.29,42.8 -12.17,12.11 -26.58,18.15 -43.14,18.15 -16.59,0 -30.97,-6.04 -43.15,-18.15 -12.2,-12.08 -18.29,-26.34 -18.29,-42.8 0,-16.43 6.09,-30.94 18.29,-43.52 12.18,-12.58 26.56,-18.87 43.15,-18.87 16.56,0 30.97,6.29 43.14,18.87 12.21,12.58 18.29,27.09 18.29,43.52z"/>
   <path class="fil7" d="M7026.19 4397.43c0,16.46 -6.08,30.72 -18.29,42.83 -12.17,12.08 -26.56,18.12 -43.14,18.12 -16.59,0 -30.97,-6.04 -43.15,-18.12 -12.2,-12.11 -18.29,-26.37 -18.29,-42.83 0,-16.43 6.09,-30.7 18.29,-42.8 12.18,-12.08 26.56,-18.15 43.15,-18.15 16.58,0 30.97,6.07 43.14,18.15 12.21,12.1 18.29,26.37 18.29,42.8z"/>
   <path class="fil5" d="M6872.6 4245.09c0,16.43 -6.09,30.7 -18.29,42.8 -12.18,12.08 -26.56,18.15 -43.15,18.15 -16.56,0 -30.95,-6.07 -43.15,-18.15 -12.18,-12.1 -18.29,-26.37 -18.29,-42.8 0,-16.46 6.11,-30.72 18.29,-42.8 12.2,-12.11 26.59,-18.15 43.15,-18.15 16.59,0 30.97,6.04 43.15,18.15 12.2,12.08 18.29,26.34 18.29,42.8z"/>
   <path class="fil7" d="M6563.95 3786.54c0,16.46 -6.09,30.72 -18.27,42.8 -12.2,12.11 -26.58,18.15 -43.15,18.15 -16.58,0 -30.97,-6.04 -43.17,-18.15 -12.18,-12.08 -18.27,-26.34 -18.27,-42.8 0,-16.43 6.09,-30.7 18.27,-42.8 12.2,-12.08 26.59,-18.15 43.17,-18.15 16.57,0 30.95,6.07 43.15,18.15 12.18,12.1 18.27,26.37 18.27,42.8z"/>
   <path class="fil6" d="M6719.02 3786.54c0,16.46 -6.11,30.72 -18.29,42.8 -12.2,12.11 -26.58,18.15 -43.15,18.15 -16.58,0 -30.97,-6.04 -43.17,-18.15 -12.18,-12.08 -18.26,-26.34 -18.26,-42.8 0,-16.43 6.08,-30.7 18.26,-42.8 12.2,-12.08 26.59,-18.15 43.17,-18.15 16.57,0 30.95,6.07 43.15,18.15 12.18,12.1 18.29,26.37 18.29,42.8z"/>
   <path class="fil2" d="M7026.19 3940.35c0,16.46 -6.08,30.72 -18.29,42.8 -12.17,12.11 -26.56,18.15 -43.14,18.15 -16.59,0 -30.97,-6.04 -43.15,-18.15 -12.2,-12.08 -18.29,-26.34 -18.29,-42.8 0,-16.43 6.09,-30.94 18.29,-43.52 12.18,-12.58 26.56,-18.87 43.15,-18.87 16.58,0 30.97,6.29 43.14,18.87 12.21,12.58 18.29,27.09 18.29,43.52z"/>
   <path class="fil3" d="M6872.6 3786.54c0,16.46 -6.09,30.72 -18.29,42.8 -12.18,12.11 -26.56,18.15 -43.15,18.15 -16.56,0 -30.95,-6.04 -43.15,-18.15 -12.18,-12.08 -18.29,-26.34 -18.29,-42.8 0,-16.43 6.11,-30.7 18.29,-42.8 12.2,-12.08 26.59,-18.15 43.15,-18.15 16.59,0 30.97,6.07 43.15,18.15 12.2,12.1 18.29,26.37 18.29,42.8z"/>
   <path class="fil2" d="M5548.8 4703.61c0,16.45 -6.09,30.72 -18.29,42.8 -12.18,12.11 -26.59,18.15 -43.15,18.15 -16.59,0 -30.97,-6.04 -43.15,-18.15 -12.2,-12.08 -18.29,-26.35 -18.29,-42.8 0,-16.43 6.09,-30.72 18.29,-42.8 12.18,-12.11 26.56,-18.15 43.15,-18.15 16.56,0 30.97,6.04 43.15,18.15 12.2,12.08 18.29,26.37 18.29,42.8z"/>
   <path class="fil2" d="M5702.37 4703.61c0,16.45 -6.09,30.72 -18.27,42.8 -12.2,12.11 -26.58,18.15 -43.14,18.15 -16.59,0 -30.97,-6.04 -43.18,-18.15 -12.17,-12.08 -18.26,-26.35 -18.26,-42.8 0,-16.43 6.09,-30.72 18.26,-42.8 12.21,-12.11 26.59,-18.15 43.18,-18.15 16.56,0 30.94,6.04 43.14,18.15 12.18,12.08 18.27,26.37 18.27,42.8z"/>
   <path class="fil7" d="M5548.8 4551.24c0,16.46 -6.09,30.72 -18.29,42.83 -12.18,12.08 -26.59,18.12 -43.15,18.12 -16.59,0 -30.97,-6.04 -43.15,-18.12 -12.2,-12.11 -18.29,-26.37 -18.29,-42.83 0,-16.43 6.09,-30.7 18.29,-42.8 12.18,-12.08 26.56,-18.12 43.15,-18.12 16.56,0 30.97,6.04 43.15,18.12 12.2,12.1 18.29,26.37 18.29,42.8z"/>
   <path class="fil6" d="M5857.45 4703.61c0,16.45 -6.12,30.72 -18.29,42.8 -12.21,12.11 -26.59,18.15 -43.15,18.15 -16.59,0 -30.97,-6.04 -43.17,-18.15 -12.18,-12.08 -18.27,-26.35 -18.27,-42.8 0,-16.43 6.09,-30.72 18.27,-42.8 12.2,-12.11 26.58,-18.15 43.17,-18.15 16.56,0 30.94,6.04 43.15,18.15 12.17,12.08 18.29,26.37 18.29,42.8z"/>
   <path class="fil5" d="M5548.8 4397.43c0,16.46 -6.09,30.72 -18.29,42.83 -12.18,12.08 -26.59,18.12 -43.15,18.12 -16.59,0 -30.97,-6.04 -43.15,-18.12 -12.2,-12.11 -18.29,-26.37 -18.29,-42.83 0,-16.43 6.09,-30.7 18.29,-42.8 12.18,-12.08 26.56,-18.15 43.15,-18.15 16.56,0 30.97,6.07 43.15,18.15 12.2,12.1 18.29,26.37 18.29,42.8z"/>
   <path class="fil7" d="M6011.02 4703.61c0,16.45 -6.09,30.72 -18.29,42.8 -12.18,12.11 -26.56,18.15 -43.15,18.15 -16.56,0 -30.94,-6.04 -43.15,-18.15 -12.17,-12.08 -18.29,-26.35 -18.29,-42.8 0,-16.43 6.12,-30.72 18.29,-42.8 12.21,-12.11 26.59,-18.15 43.15,-18.15 16.59,0 30.97,6.04 43.15,18.15 12.2,12.08 18.29,26.37 18.29,42.8z"/>
   <path class="fil2" d="M5548.8 4245.09c0,16.43 -6.09,30.7 -18.29,42.8 -12.18,12.08 -26.59,18.15 -43.15,18.15 -16.59,0 -30.97,-6.07 -43.15,-18.15 -12.2,-12.1 -18.29,-26.37 -18.29,-42.8 0,-16.46 6.09,-30.72 18.29,-42.8 12.18,-12.11 26.56,-18.15 43.15,-18.15 16.56,0 30.97,6.04 43.15,18.15 12.2,12.08 18.29,26.34 18.29,42.8z"/>
   <path class="fil5" d="M6164.62 4703.61c0,16.45 -6.09,30.72 -18.29,42.8 -12.18,12.11 -26.56,18.15 -43.15,18.15 -16.59,0 -30.97,-6.04 -43.15,-18.15 -12.2,-12.08 -18.29,-26.35 -18.29,-42.8 0,-16.43 6.09,-30.72 18.29,-42.8 12.18,-12.11 26.56,-18.15 43.15,-18.15 16.59,0 30.97,6.04 43.15,18.15 12.2,12.08 18.29,26.37 18.29,42.8z"/>
   <path class="fil6" d="M5548.8 4092.72c0,16.45 -6.09,30.72 -18.29,42.8 -12.18,12.11 -26.59,18.15 -43.15,18.15 -16.59,0 -30.97,-6.04 -43.15,-18.15 -12.2,-12.08 -18.29,-26.35 -18.29,-42.8 0,-16.46 6.09,-30.72 18.29,-42.8 12.18,-12.11 26.56,-18.15 43.15,-18.15 16.56,0 30.97,6.04 43.15,18.15 12.2,12.08 18.29,26.34 18.29,42.8z"/>
   <path class="fil3" d="M5548.8 3940.35c0,16.46 -6.09,30.72 -18.29,42.8 -12.18,12.11 -26.59,18.15 -43.15,18.15 -16.59,0 -30.97,-6.04 -43.15,-18.15 -12.2,-12.08 -18.29,-26.34 -18.29,-42.8 0,-16.43 6.09,-30.94 18.29,-43.52 12.18,-12.58 26.56,-18.87 43.15,-18.87 16.56,0 30.97,6.29 43.15,18.87 12.2,12.58 18.29,27.09 18.29,43.52z"/>
   <path class="fil2" d="M5548.8 3786.54c0,16.46 -6.09,30.72 -18.29,42.8 -12.18,12.11 -26.59,18.15 -43.15,18.15 -16.59,0 -30.97,-6.04 -43.15,-18.15 -12.2,-12.08 -18.29,-26.34 -18.29,-42.8 0,-16.43 6.09,-30.7 18.29,-42.8 12.18,-12.08 26.56,-18.15 43.15,-18.15 16.56,0 30.97,6.07 43.15,18.15 12.2,12.1 18.29,26.37 18.29,42.8z"/>
  </g>
 </g>
</svg>
